<?xml version="1.0" encoding="UTF-8"?>
<!DOCTYPE svg PUBLIC "-//W3C//DTD SVG 1.1//EN" "http://www.w3.org/Graphics/SVG/1.1/DTD/svg11.dtd">
<!-- Creator: CorelDRAW -->
<svg xmlns="http://www.w3.org/2000/svg" xml:space="preserve" width="54.6265mm" height="60.1773mm" style="shape-rendering:geometricPrecision; text-rendering:geometricPrecision; image-rendering:optimizeQuality; fill-rule:evenodd; clip-rule:evenodd"
viewBox="0 0 40.3996 44.5048"
 xmlns:xlink="http://www.w3.org/1999/xlink">
 <defs>
  <style type="text/css">
   <![CDATA[
    .str0 {stroke:white;stroke-width:0.41482;stroke-linecap:round;stroke-linejoin:round;stroke-dasharray:0.414820 0.829640}
    .fil3 {fill:none}
    .fil2 {fill:white}
    .fil1 {fill:white;fill-rule:nonzero}
    .fil0 {fill:white;fill-rule:nonzero}
   ]]>
  </style>
 </defs>
 <g id="Vrstva_x0020_1">
  <metadata id="CorelCorpID_0Corel-Layer"/>
  <g>
   <path class="fil0" d="M40.1647 5.97026l-0.948413 0.407646 0 -0.00207077 -0.0377916 -0.065747 -0.0888213 -0.11197 -0.138816 -0.144806 -0.18955 -0.166179 -0.235254 -0.184447 -0.277705 -0.195096 -0.321265 -0.206855 -0.361497 -0.215212 -0.398697 -0.220315 -0.436785 -0.226306 -0.473837 -0.228968 -0.505638 -0.232592 -0.540397 -0.232814 -0.571977 -0.231926 -0.604591 -0.229782 -0.632029 -0.226454 -0.66028 -0.223791 -0.68757 -0.2161 -0.715599 -0.211071 -0.738526 -0.202936 -0.762488 -0.193469 -0.785192 -0.180749 -0.808932 -0.17106 -0.827421 -0.157896 -0.844801 -0.145694 -0.865213 -0.12824 -0.882296 -0.111378 -0.89657 -0.0956253 -0.913432 -0.0743999 -0.925339 -0.0560587 -0.938207 -0.0346115 -0.949744 -0.00976221 0 -1.04352 0.974002 0.0137558 0.962317 0.0346115 0.949596 0.0560587 0.933696 0.0785414 0.92068 0.0956253 0.90256 0.115519 0.885329 0.132234 0.869058 0.145694 0.847537 0.162038 0.825054 0.175054 0.805456 0.188884 0.782604 0.197611 0.75879 0.206929 0.731722 0.215212 0.707686 0.224235 0.680544 0.227933 0.652145 0.234589 0.620714 0.237917 0.592241 0.240062 0.560513 0.240949 0.529896 0.240727 0.493953 0.241245 0.461042 0.238582 0.426949 0.236586 0.389749 0.231483 0.35351 0.227267 0.318085 0.223643 0.279628 0.216987 0.242058 0.215138 0.207299 0.214029 0.169581 0.222164 0.13068 0.241023 0 -0.00207077zm-3.17612 27.4149l-0.819286 -0.627739 0 0 0.217431 -0.339459 0.223052 -0.453869 0.220537 -0.555189 0.216174 -0.64756 0.207743 -0.728837 0.199386 -0.803163 0.191029 -0.870611 0.180675 -0.926966 0.170395 -0.980362 0.159967 -1.02281 0.151832 -1.05831 0.139629 -1.08886 0.131346 -1.11053 0.121288 -1.12702 0.111082 -1.13264 0.0990272 -1.13537 0.0908921 -1.12909 0.080908 -1.11585 0.07085 -1.09559 0.0608659 -1.06852 0.0509558 -1.03435 0.0409717 -0.993305 0.0310616 -0.945307 0.0212254 -0.888213 0.0114632 -0.828308 0.00155308 -0.757311 -0.00813517 -0.679435 -0.0179713 -0.594533 -0.0276596 -0.500683 -0.0352771 -0.393816 -0.0389749 -0.271715 -0.0263284 -0.101912 0.948413 -0.407646 0.0868245 0.305735 0.0550973 0.357356 0.0392707 0.442627 0.0276596 0.52923 0.0179713 0.614945 0.00813517 0.695705 -0.00155308 0.769587 -0.0114632 0.836444 -0.0212254 0.90049 -0.0310616 0.953442 -0.0409717 1.00144 -0.0509558 1.04249 -0.0608659 1.07665 -0.07085 1.10387 -0.080908 1.12399 -0.0908921 1.13722 -0.103021 1.14351 -0.111082 1.14491 -0.121288 1.13515 -0.131346 1.12265 -0.143623 1.10113 -0.151832 1.07458 -0.164109 1.03908 -0.174389 0.99678 -0.184668 0.951371 -0.195022 0.895017 -0.207521 0.835852 -0.219872 0.769661 -0.232296 0.696371 -0.248788 0.620418 -0.267425 0.53951 -0.29405 0.45764 0 0zm-0.819286 -0.627739l0.819286 0.627739 -0.0164922 0.0208556 -0.0173797 0.0198202 -0.0181932 0.0187109 -0.0188588 0.0176016 -0.0195984 0.0165662 -0.020264 0.0153829 -0.0209296 0.0142735 -0.0214473 0.0131642 -0.021965 0.0120548 -0.0224087 0.0108715 -0.0229264 0.00983616 -0.0232222 0.00857891 -0.023592 0.00746957 -0.0238878 0.00636023 -0.0241836 0.00510297 -0.0243316 0.00399363 -0.0245534 0.00281033 -0.0246274 0.00162703 -0.0247013 0.000369781 -0.0247013 -0.000739561 -0.0247013 -0.00199682 -0.0247013 -0.00318011 -0.0244795 -0.00436341 -0.0244055 -0.00562066 -0.0241097 -0.00687792 -0.0239618 -0.00806122 -0.023592 -0.00931847 -0.0232962 -0.0105757 -0.0229264 -0.011759 -0.0224827 -0.0130902 -0.0220389 -0.0143475 -0.0214473 -0.0156047 -0.0207077 -0.0167141 -0.0195984 -0.0175276 -0.018489 -0.0183411 -0.0174536 -0.0190807 -0.0163443 -0.0197463 -0.015235 -0.0204858 -0.0141256 -0.0210775 -0.0130902 -0.0216691 -0.0119069 -0.0221868 -0.0107976 -0.0227045 -0.00968825 -0.0230743 -0.00850495 -0.023518 -0.00739561 -0.0238139 -0.00628627 -0.0241836 -0.00502902 -0.0244055 -0.00399363 -0.0245534 -0.00273638 -0.0247753 -0.00162703 -0.0249232 -0.000369781 -0.0249232 0.000739561 -0.0249972 0.00192286 -0.0249232 0.00318011 -0.0249232 0.00436341 -0.0247753 0.00554671 -0.0246274 0.00680396 -0.0244055 0.00798726 -0.0241097 0.00917056 -0.0238878 0.0105018 -0.023518 0.0116851 -0.0231483 0.0129423 -0.0227045 0.0141996 -0.0222608 0.0154568 -0.0216691zm-15.9693 11.7474l0 -1.04352 0 0 0.198276 -0.0146433 0.268609 -0.0529526 0.323558 -0.0891911 0.373626 -0.127574 0.416595 -0.161964 0.452464 -0.196427 0.487371 -0.228968 0.517175 -0.255444 0.544021 -0.283918 0.56569 -0.308619 0.586398 -0.331175 0.602151 -0.351883 0.614797 -0.370594 0.624338 -0.389231 0.632916 -0.402099 0.634396 -0.416965 0.637058 -0.425691 0.632399 -0.434566 0.628849 -0.443589 0.618273 -0.446473 0.608733 -0.449505 0.591945 -0.450541 0.574269 -0.449579 0.553562 -0.444772 0.529748 -0.441888 0.501053 -0.433013 0.4711 -0.422215 0.438338 -0.411492 0.398328 -0.394778 0.359427 -0.38006 0.315423 -0.359353 0.268387 -0.334725 0.819286 0.627739 -0.30078 0.379543 -0.343674 0.392041 -0.383536 0.404466 -0.422585 0.419183 -0.45446 0.42791 -0.487223 0.438486 -0.517175 0.44529 -0.541876 0.450023 -0.56569 0.456901 -0.586398 0.457862 -0.604074 0.458676 -0.61672 0.45764 -0.630402 0.454608 -0.636984 0.447582 -0.644528 0.442849 -0.645045 0.433827 -0.646524 0.420958 -0.641052 0.410235 -0.636466 0.393373 -0.626778 0.378729 -0.614279 0.360018 -0.598527 0.339311 -0.581813 0.316754 -0.560144 0.292201 -0.537439 0.267573 -0.51148 0.237103 -0.484856 0.208704 -0.452833 0.178234 -0.422141 0.143845 -0.392189 0.109603 -0.36135 0.0692229 -0.339533 0.02692 0 0zm0 -1.04352l0 1.04352 -0.0265502 -0.000665605 -0.0262544 -0.00199682 -0.0258846 -0.00332803 -0.0254409 -0.00458528 -0.0249232 -0.00584253 -0.0245534 -0.00702583 -0.0239618 -0.00820913 -0.023518 -0.00931847 -0.0228524 -0.0105018 -0.0222608 -0.0115372 -0.0216691 -0.0124986 -0.0209296 -0.0136079 -0.020264 -0.0145694 -0.0195244 -0.0154568 -0.0187109 -0.0164183 -0.0179713 -0.0173057 -0.0170839 -0.0181192 -0.0162703 -0.0189328 -0.0153089 -0.0196723 -0.0144214 -0.0204858 -0.01346 -0.0211514 -0.0124246 -0.0218171 -0.0113892 -0.0225566 -0.0103539 -0.0230743 -0.00924451 -0.023666 -0.00813517 -0.0242576 -0.00695187 -0.0247753 -0.00576858 -0.025219 -0.00458528 -0.0257367 -0.00325407 -0.0261065 -0.00199682 -0.0264763 -0.000665605 -0.0268461 0.000665605 -0.0268461 0.00199682 -0.0264763 0.00325407 -0.0261065 0.00458528 -0.0257367 0.00576858 -0.025219 0.00695187 -0.0247753 0.00813517 -0.0242576 0.00924451 -0.023666 0.0103539 -0.0230743 0.0113892 -0.0225566 0.0124246 -0.0218171 0.01346 -0.0211514 0.0144214 -0.0204858 0.0153089 -0.0196723 0.0162703 -0.0189328 0.0170839 -0.0181932 0.0179713 -0.0172318 0.0187109 -0.0164183 0.0195244 -0.0154568 0.020264 -0.0145694 0.0209296 -0.0136079 0.0216691 -0.0124986 0.0222608 -0.0115372 0.0228524 -0.0105018 0.023518 -0.00931847 0.0239618 -0.00820913 0.0245534 -0.00702583 0.0249232 -0.00584253 0.0254409 -0.00458528 0.0258846 -0.00332803 0.0262544 -0.00199682 0.0265502 -0.000665605zm-16.7889 -10.0762l0.819286 -0.627739 0 0 0.268387 0.334725 0.315349 0.359353 0.359501 0.38006 0.398328 0.394778 0.438264 0.411492 0.471174 0.422215 0.500979 0.433013 0.529748 0.441888 0.553562 0.444772 0.574269 0.449579 0.591945 0.450541 0.608733 0.449505 0.618273 0.446473 0.628849 0.443589 0.632473 0.434566 0.636984 0.425691 0.634469 0.416965 0.632916 0.402099 0.624411 0.389231 0.614797 0.370594 0.602151 0.351883 0.586398 0.331175 0.565764 0.308619 0.544021 0.283918 0.517175 0.255444 0.487445 0.228968 0.452464 0.196427 0.416595 0.161964 0.373626 0.127574 0.323632 0.0891911 0.268609 0.0529526 0.19835 0.0146433 0 1.04352 -0.339606 -0.02692 -0.36135 -0.0692229 -0.392263 -0.109603 -0.422141 -0.143845 -0.452833 -0.178234 -0.484856 -0.208704 -0.511554 -0.237103 -0.537439 -0.267573 -0.560144 -0.292201 -0.581887 -0.316754 -0.598527 -0.339311 -0.614279 -0.360018 -0.626778 -0.378729 -0.63654 -0.393373 -0.641052 -0.410235 -0.646598 -0.420958 -0.644971 -0.433827 -0.644601 -0.442849 -0.636984 -0.447582 -0.630402 -0.454608 -0.61672 -0.45764 -0.604074 -0.458676 -0.586398 -0.457862 -0.56569 -0.456901 -0.541876 -0.450023 -0.517101 -0.44529 -0.487297 -0.438486 -0.454386 -0.42791 -0.422585 -0.419183 -0.38361 -0.404466 -0.3436 -0.392041 -0.30078 -0.379543 0 0zm-3.17612 -27.4128l0.948413 0.403505 0 0.00207077 -0.0263284 0.101912 -0.0389749 0.271715 -0.0352771 0.393816 -0.0276596 0.500683 -0.0179713 0.594533 -0.00813517 0.679435 0.00155308 0.757311 0.0113892 0.828308 0.0212254 0.888213 0.0311355 0.945307 0.0409717 0.993305 0.0508818 1.03435 0.0608659 1.06852 0.07085 1.09559 0.080908 1.11585 0.0908921 1.12909 0.0990272 1.13537 0.111082 1.13264 0.121214 1.12702 0.13142 1.11053 0.139629 1.08886 0.151832 1.05831 0.159967 1.02281 0.170395 0.980362 0.180675 0.926966 0.191029 0.870611 0.199386 0.803163 0.207743 0.728837 0.216174 0.64756 0.220611 0.555189 0.223052 0.453869 0.217431 0.339459 -0.819286 0.627739 -0.29405 -0.45764 -0.267425 -0.53951 -0.248862 -0.620418 -0.232296 -0.696371 -0.219872 -0.769661 -0.207521 -0.835852 -0.195022 -0.895017 -0.184668 -0.951371 -0.174389 -0.99678 -0.164109 -1.03908 -0.151832 -1.07458 -0.143623 -1.10113 -0.13142 -1.12265 -0.121214 -1.13515 -0.111082 -1.14491 -0.103021 -1.14351 -0.0908921 -1.13722 -0.080908 -1.12399 -0.07085 -1.10387 -0.0608659 -1.07665 -0.0508818 -1.04249 -0.0409717 -1.00144 -0.0311355 -0.953442 -0.0212254 -0.90049 -0.0113892 -0.836444 -0.00155308 -0.769587 0.00813517 -0.695705 0.0179713 -0.614945 0.0276596 -0.52923 0.0392707 -0.442627 0.0550973 -0.357356 0.0868245 -0.305735 0 0.00207077zm19.965 -5.97233l0 1.04352 0 0 -0.949818 0.00976221 -0.938207 0.0346115 -0.925339 0.0560587 -0.913506 0.0743999 -0.89657 0.0956253 -0.88237 0.111378 -0.865213 0.12824 -0.844801 0.145694 -0.827495 0.157896 -0.808858 0.17106 -0.785192 0.180749 -0.762561 0.193469 -0.738526 0.202936 -0.715599 0.211071 -0.68757 0.2161 -0.66028 0.223791 -0.632029 0.226454 -0.604591 0.229782 -0.572051 0.231926 -0.540397 0.232814 -0.505638 0.232592 -0.473837 0.228968 -0.436785 0.226306 -0.398697 0.220315 -0.361497 0.215212 -0.321265 0.206855 -0.277705 0.195096 -0.235254 0.184447 -0.18955 0.166179 -0.138816 0.144806 -0.0888213 0.11197 -0.0377916 0.065747 -0.948413 -0.403505 0.13068 -0.241023 0.169581 -0.222164 0.207299 -0.214029 0.242058 -0.215138 0.279628 -0.216987 0.318085 -0.223643 0.35351 -0.227267 0.389749 -0.231483 0.426949 -0.236586 0.461042 -0.238582 0.493953 -0.241245 0.529896 -0.240727 0.560513 -0.240949 0.592315 -0.240062 0.620714 -0.237917 0.652145 -0.234589 0.680544 -0.227933 0.707686 -0.224235 0.731722 -0.215212 0.75879 -0.206929 0.782678 -0.197611 0.805456 -0.188884 0.82498 -0.175054 0.847611 -0.162038 0.869058 -0.145694 0.885329 -0.132234 0.902634 -0.115519 0.92068 -0.0956253 0.93377 -0.0785414 0.949596 -0.0560587 0.962317 -0.0346115 0.974076 -0.0137558 0 0zm0 1.04352l0 -1.04352 0.0265502 0.000665605 0.0262544 0.00199682 0.0258846 0.00332803 0.0254409 0.00458528 0.0249232 0.00584253 0.0245534 0.00702583 0.0239618 0.00820913 0.023518 0.00931847 0.0228524 0.0105018 0.0222608 0.0115372 0.0216691 0.0124986 0.0209296 0.0136079 0.020264 0.0145694 0.0195244 0.0154568 0.0187109 0.0164183 0.0179713 0.0172318 0.0170839 0.0181932 0.0162703 0.0189328 0.0153089 0.0196723 0.0144214 0.0204858 0.01346 0.0211514 0.0124246 0.0218171 0.0113892 0.0225566 0.0103539 0.0230743 0.00924451 0.023666 0.00813517 0.0242576 0.00695187 0.0247753 0.00576858 0.025219 0.00458528 0.0257367 0.00325407 0.0261065 0.00199682 0.0264763 0.000665605 0.0268461 -0.000665605 0.0268461 -0.00199682 0.0264763 -0.00325407 0.0261065 -0.00458528 0.0257367 -0.00576858 0.025219 -0.00695187 0.0247753 -0.00813517 0.0242576 -0.00924451 0.023666 -0.0103539 0.0230743 -0.0113892 0.0225566 -0.0124246 0.0218171 -0.01346 0.0211514 -0.0144214 0.0204858 -0.0153089 0.0196723 -0.0162703 0.0189328 -0.0170839 0.0181192 -0.0179713 0.0173057 -0.0187109 0.0164183 -0.0195244 0.0154568 -0.020264 0.0145694 -0.0209296 0.0136079 -0.0216691 0.0124986 -0.0222608 0.0115372 -0.0228524 0.0105018 -0.023518 0.00931847 -0.0239618 0.00820913 -0.0245534 0.00702583 -0.0249232 0.00584253 -0.0254409 0.00458528 -0.0258846 0.00332803 -0.0262544 0.00199682 -0.0265502 0.000665605z"/>
  </g>
  <path class="fil1" d="M8.30135 21.5618c-0.608067,0 -1.20319,-0.116481 -1.72066,-0.310542 -0.0258846,-0.0129423 -0.0905962,0.0258846 -0.103539,0.0905962l-0.181119 1.25489c-0.0258846,0.0776539 0,0.155234 0.0517693,0.181119 0.595125,0.170395 1.37137,0.273859 2.00525,0.273859 2.01826,0 2.96268,-0.739561 2.96268,-2.86129 0,-1.70779 -0.608067,-2.41933 -2.30285,-2.65221 -1.20319,-0.168176 -1.26783,-0.297525 -1.26783,-1.17731 0,-0.957362 0.0516953,-1.22908 1.3196,-1.22908 0.608067,0 1.13848,0.116481 1.65595,0.310542 0.0258846,0.0129423 0.0905962,-0.0258846 0.103539,-0.0905962l0.181119 -1.25489c0.0258846,-0.0905962 0,-0.16825 -0.0517693,-0.181119 -0.595125,-0.181192 -1.30666,-0.284657 -1.94061,-0.284657 -2.01826,0 -2.89797,0.737416 -2.89797,2.87209 0,1.69485 0.633952,2.28998 2.25108,2.49698 1.28085,0.168176 1.31967,0.439817 1.31967,1.30666 0,0.970304 -0.129423,1.25496 -1.38431,1.25496zm0.905593 -8.35763c0.0905962,0 0.155234,-0.0129423 0.232888,-0.103465l1.0609 -1.17731c0.038753,-0.0517693 0,-0.142366 -0.0517693,-0.168176l-0.698663 -0.478718c-0.038753,-0.038827 -0.103465,0.0129423 -0.129349,0.0517693l-0.776243 0.89265 -0.789186 -0.89265c-0.038827,-0.038827 -0.103465,-0.0776539 -0.142292,-0.0517693l-0.685721 0.478718c-0.0517693,0.0258107 -0.0905223,0.116407 -0.038827,0.168176l1.04796 1.17731c0.0776539,0.0905223 0.155234,0.103465 0.232888,0.103465l0.737416 0z"/>
  <path id="1" class="fil1" d="M17.3006 13.851l-5.576 0c-0.0517693,0 -0.0905962,0.0517693 -0.0905962,0.116407l0 1.25496c0,0.0647116 0.038827,0.116407 0.0905962,0.116407l2.04407 0 0 7.41314c0,0.0647116 0.038827,0.118626 0.0905962,0.118626l1.30666 0c0.0517693,0 0.0905962,-0.053914 0.0905962,-0.118626l0 -7.41314 2.04407 0c0.0517693,0 0.0905962,-0.0516953 0.0905962,-0.116407l0 -1.25496c0,-0.0646376 -0.038827,-0.116407 -0.0905962,-0.116407z"/>
  <path id="12" class="fil1" d="M22.5609 22.8706c0.0517693,0 0.103539,-0.053914 0.103539,-0.118626l0 -1.16437c0,-0.0646376 -0.0517693,-0.116407 -0.103539,-0.116407l-3.06615 0 0 -2.60044 2.39344 0c0.0516953,0 0.103465,-0.0516953 0.103465,-0.116407l0 -1.15142c0,-0.0647116 -0.0517693,-0.116481 -0.103465,-0.116481l-2.39344 0 0 -2.23813 3.06615 0c0.0517693,0 0.103539,-0.0517693 0.103539,-0.116481l0 -1.16437c0,-0.0646376 -0.0517693,-0.116407 -0.103539,-0.116407l-4.4634 0c-0.0517693,0 -0.0905223,0.0517693 -0.0905223,0.116407l0 8.78451c0,0.0647116 0.038753,0.118626 0.0905223,0.118626l4.4634 0zm-1.78537 -9.66643c0.0905962,0 0.155308,-0.0129423 0.232888,-0.103465l1.0609 -1.17731c0.038827,-0.0517693 0,-0.142366 -0.0517693,-0.168176l-0.698589 -0.478718c-0.038827,-0.038827 -0.103539,0.0129423 -0.129423,0.0517693l-0.776243 0.89265 -0.789186 -0.89265c-0.038827,-0.038827 -0.103465,-0.0776539 -0.142292,-0.0517693l-0.685721 0.478718c-0.0516953,0.0258107 -0.0905223,0.116407 -0.038753,0.168176l1.04788 1.17731c0.0776539,0.0905223 0.155308,0.103465 0.232888,0.103465l0.737416 0z"/>
  <path id="123" class="fil1" d="M26.5404 15.1447c0.633952,0 1.22908,0.116481 1.69485,0.284657 0.0258846,0.0129423 0.0905223,-0.0129423 0.103465,-0.0776539l0.181119 -1.29371c0.0129423,-0.0776539 0,-0.155234 -0.0517693,-0.168176 -0.607993,-0.168176 -1.26783,-0.258772 -1.92767,-0.258772 -2.2899,0 -3.22138,0.905593 -3.22138,4.64452 0,3.80364 0.931477,4.77609 3.22138,4.77609 0.659836,0 1.31967,-0.0776539 1.92767,-0.247975 0.0517693,-0.0258846 0.0647116,-0.0905223 0.0517693,-0.168176l-0.181119 -1.30666c-0.0129423,-0.0647116 -0.07758,-0.0905962 -0.103465,-0.0776539 -0.465776,0.181119 -1.0609,0.284657 -1.69485,0.284657 -1.34548,0 -1.56543,-0.323484 -1.56543,-3.24734 0,-2.83326 0.219945,-3.1438 1.56543,-3.1438z"/>
  <path id="1234" class="fil1" d="M34.8928 13.9674c0,-0.0646376 -0.038753,-0.116407 -0.0905223,-0.116407l-1.30666 0c-0.0517693,0 -0.103539,0.0517693 -0.103539,0.116407l0 3.38963 -2.50985 0 0 -3.38963c0,-0.0646376 -0.038827,-0.116407 -0.0905962,-0.116407l-1.30666 0c-0.0517693,0 -0.0905223,0.0517693 -0.0905223,0.116407l0 8.78451c0,0.0647116 0.038753,0.118626 0.0905223,0.118626l1.30666 0c0.0517693,0 0.0905962,-0.053914 0.0905962,-0.118626l0 -3.9071 2.50985 0 0 3.9071c0,0.0647116 0.0517693,0.118626 0.103539,0.118626l1.30666 0c0.0517693,0 0.0905223,-0.053914 0.0905223,-0.118626l0 -8.78451z"/>
  <path class="fil2" d="M24.6749 6.25647l0 0.0762488c0,0.215508 0.143031,0.330436 0.356025,0.330436l0.0508079 0c0.126021,0 0.305143,-0.190659 0.305143,-0.279554l0 -0.152498c0,-0.121584 -0.199829,-0.279628 -0.381392,-0.279628 -0.161964,0 -0.330584,0.13741 -0.330584,0.304995z"/>
  <path class="fil2" d="M17.9114 8.95061c0,-0.454164 0.478126,-1.52498 0.864547,-1.52498l0.0254409 0c0.156047,0 0.22882,0.120992 0.22882,0.279554l0 0.0508818c0,0.136301 -0.277483,0.698737 -0.33406,0.860627 -0.0721812,0.20619 -0.345301,0.588099 -0.606736,0.588099l-0.0508818 0c-0.0592388,0 -0.127131,-0.0678178 -0.127131,-0.127131l0 -0.127057zm5.16162 -2.3129l-0.472949 0.00428945 -0.137337 0.326146 0.457714 0c-0.00709979,0.0850495 -0.451576,1.13463 -0.523018,1.30717 -0.0869724,0.209961 -0.597122,1.0311 -0.824611,1.0311l-0.0254409 0c-0.0686313,0 -0.10169,-0.0676698 -0.10169,-0.127057 0,-0.424656 0.406833,-0.987018 0.406833,-1.24542l0 -0.0253669c0,-0.441444 -0.520429,-0.590835 -0.685055,-0.838145l0.176533 -0.407276c-0.0296564,-0.0442258 -0.24583,-0.203305 -0.305143,-0.203305l-0.0253669 0c-0.105609,0 -0.432273,0.33687 -0.432273,0.482859l0 0.127131c0,0.137189 0.0971783,0.196871 0.152571,0.279554 -0.0877859,0.13105 -0.181932,0.404762 -0.26602,0.572864 -0.101542,0.20301 -0.213511,0.358391 -0.310024,0.554227 -0.102059,0.207003 -0.622119,0.855376 -0.873274,0.855376 -0.0595347,0 -0.10169,-0.042155 -0.10169,-0.10169l0 -0.0508079c0,-0.25611 0.291757,-0.878968 0.384942,-1.11474 0.0536921,-0.135931 0.423029,-1.02821 0.427097,-1.10002l-0.786671 0.333986c-0.00517693,-0.233405 -0.288503,-0.406685 -0.533963,-0.406685 -0.742815,0 -1.373,1.34926 -1.373,2.10952l0 0.177938c0,0.277335 0.197759,0.533741 0.483081,0.533741l0.101764 0c0.304181,0 0.49802,-0.255149 0.686461,-0.381244 0.0474059,0.203305 0.209296,0.381244 0.457714,0.381244l0.10169 0c0.511702,0 0.901377,-0.535664 1.13441,-0.848498 0.126835,-0.170395 0.650888,-1.11703 0.696297,-1.31191 0.0763227,0.0204119 0.279702,0.230669 0.279702,0.279628 0,0.327552 -0.406833,0.842582 -0.406833,1.29623l0 0.0762488c0,0.287763 0.174462,0.5083 0.45764,0.5083l0.127131 0c0.332359,0 0.545944,-0.354767 0.737416,-0.482933 0,0.264245 0.175646,0.482933 0.4322,0.482933l0.178012 0c0.472062,0 0.7474,-0.488924 0.915355,-0.533741l0 0.152498c0,0.241467 0.227933,0.381244 0.483081,0.381244l0.0508818 0c0.319934,0 0.492696,-0.200643 0.698442,-0.325037l-0.113597 0.274229 0.584771 0c0.07085,0 0.250046,-0.504159 0.290574,-0.599192 0.0939982,-0.220833 0.162186,-0.413045 0.253522,-0.636097 0.0888952,-0.216913 0.157305,-0.42399 0.255666,-0.634026 0.0514735,-0.109899 0.40025,-0.36734 0.547867,-0.36734l0.10169 0c0.0595347,0 0.10169,0.042155 0.10169,0.10169l0 0.0253669c0,0.241615 -0.508522,1.11016 -0.508522,1.47417l0 0.330436c0,0.231187 0.240727,0.355803 0.483081,0.355803 0.444328,0 0.655695,-0.261361 0.883628,-0.48922 0.113966,-0.113892 0.56569,-0.676551 0.56569,-0.83245 0,-0.0738822 -0.173057,-0.125725 -0.22882,-0.152498 -0.153903,0.229782 -0.671004,1.06748 -0.966237,1.06748l-0.0508079 0c-0.0781716,0 -0.10169,-0.0743999 -0.10169,-0.152498 0,-0.463113 0.584771,-1.27767 0.584771,-1.75372l0 -0.177864c0,-0.170839 -0.188884,-0.330436 -0.355951,-0.330436l-0.0508818 0c-0.347594,0 -0.582774,0.192878 -0.787928,0.32977l-0.534259 -0.253522c-0.126391,0.542468 -0.933918,2.33827 -1.44932,2.33827l-0.0508079 0c-0.0686313,0 -0.10169,-0.0676698 -0.10169,-0.127057 0,-0.261361 0.68402,-1.96635 0.813591,-2.21121l-0.635653 0c-0.0538401,0.201752 -0.463853,1.21133 -0.567539,1.38978 -0.168324,0.289834 -0.62382,0.948487 -1.03428,0.948487 -0.0595347,0 -0.101764,-0.042155 -0.101764,-0.101616l0 -0.0254409c0,-0.291757 0.285914,-0.864103 0.384942,-1.11474 0.0578337,-0.146285 0.421846,-1.01401 0.428724,-1.09647l0.450245 -0.00310616 0.1346 -0.32733 -0.442479 -0.00406759 0.264467 -0.707538 -0.559404 0c-0.0941461,0 -0.30322,0.594385 -0.33051,0.711606z"/>
  <path class="fil2" d="M12.0379 7.27314l0 0.177938c0,0.467329 0.418,0.813295 0.915355,0.813295l0 -0.533741c-0.25685,0 -0.381392,-0.149835 -0.381392,-0.406685l0 -0.0253669c0,-0.509336 1.16414,-0.908773 1.62459,-1.01778l-1.37033 3.4323 0.559404 0c0.131642,0 0.723143,-1.66357 0.821061,-1.89882 0.133713,-0.321413 0.25929,-0.632325 0.389157,-0.958027 0.0835704,-0.209518 0.537587,-0.574343 0.798504,-0.574343 0.0780237,0 0.152498,0.023518 0.152498,0.10169l0 0.0762488c0,0.204415 -0.517767,1.35362 -0.620788,1.61602 -0.113966,0.290204 -0.606588,1.41508 -0.625077,1.63724l0.610212 0c0.0440039,-0.188662 0.296342,-0.741706 0.389527,-0.957732 0.125947,-0.291757 0.283918,-0.669377 0.383241,-0.963944 0.10731,-0.318455 0.249158,-0.653994 0.380948,-0.966237 0.0712937,-0.16899 0.565099,-0.543282 0.804125,-0.543282l0.0254409 0c0.0593128,0 0.127131,0.0678178 0.127131,0.127057l0 0.0762488c0,0.0765446 -0.5969,1.48548 -0.676698,1.68731 -0.133787,0.338053 -0.620048,1.44532 -0.620048,1.76933l0 0.0508079c0,0.413341 0.329031,0.736011 0.6571,0.811742l0.207373 -0.506747c-0.109603,-0.0579816 -0.254261,-0.167732 -0.254261,-0.330362l0 -0.0254409c0,-0.189476 0.586472,-1.65898 0.686313,-1.85563 0.104204,-0.205302 0.686756,-1.65344 0.686756,-1.85512l0 -0.0762488c0,-0.254631 -0.20301,-0.457493 -0.457714,-0.457493l-0.0762488 0c-0.420293,0 -0.658061,0.285249 -0.915355,0.457493 -0.0220389,-0.264541 -0.190881,-0.457493 -0.483081,-0.457493 -0.386643,0 -0.632029,0.200199 -0.873791,0.365639l-0.448396 -0.416521c-0.121658,0.0283991 -0.567022,0.201087 -0.72721,0.264319 -0.259882,0.102651 -0.478126,0.176977 -0.733053,0.283918 -0.387382,0.162556 -0.955291,0.554967 -0.955291,1.07843z"/>
  <path class="fil3 str0" d="M2.66116 7.07331c-0.0400103,0.381022 -0.04038,0.851974 -0.04711,1.17553 -0.0215212,1.0274 -0.00436341,2.06071 0.0247013,3.08796 0.0796507,2.82261 0.261435,5.6592 0.523683,8.47049 0.242798,2.59985 0.551861,5.24867 1.05143,7.81221 0.183855,0.942719 0.705615,3.43319 1.27841,4.19486 1.96605,2.61494 11.5401,4.11373 14.7077,4.11373 3.16769,0 12.7413,-1.49879 14.7074,-4.11351 0.57279,-0.761896 1.09455,-3.25215 1.27818,-4.19494 0.499574,-2.56369 0.808858,-5.2125 1.05151,-7.81235 0.262396,-2.81129 0.44418,-5.64788 0.523831,-8.47049 0.0288429,-1.02725 0.0462226,-2.06057 0.0247013,-3.08796 -0.00673001,-0.323558 -0.00709979,-0.794511 -0.04711,-1.17553 -0.396035,-0.329992 -1.15704,-0.742815 -1.50212,-0.921789 -1.2594,-0.653106 -2.62751,-1.18226 -3.97448,-1.62223 -3.84209,-1.25518 -8.02217,-1.91628 -12.0619,-1.91628 -4.03993,0 -8.21993,0.661094 -12.062,1.91628 -1.34718,0.439965 -2.7153,0.969121 -3.9747,1.62223 -0.345079,0.178974 -1.10609,0.591797 -1.50212,0.921789z"/>
  <path class="fil1" d="M11.2191 29.2141l0.618273 0.177495c0.187109,0.0532484 0.220389,0.164183 0.0954034,0.599045 -0.125725,0.439299 -0.217431,0.533224 -0.408977,0.478496l-0.614575 -0.176016 0.309876 -1.07902zm-0.409717 1.42809l0.652293 0.187109c0.383832,0.110195 0.715895,-0.0991012 0.891911,-0.712937 0.172318,-0.601263 -0.00147912,-0.96069 -0.380874,-1.06941l-1.01098 -0.289908c-0.0170099,-0.00443737 -0.0347594,0.00887473 -0.0407498,0.030322l-0.829714 2.89612c-0.00665605,0.0214473 0.00140517,0.042155 0.018489,0.0465924l0.328365 0.0946638c0.0170099,0.00443737 0.0347594,-0.00887473 0.0406759,-0.030322l0.330584 -1.15224z"/>
  <path id="1" class="fil1" d="M14.1847 29.5033c-0.655325,-0.139037 -1.05609,0.0798726 -1.32455,1.3423 -0.276596,1.30237 -0.00221868,1.6788 0.653032,1.81784 0.650814,0.138298 1.05387,-0.0939243 1.33047,-1.39629 0.268461,-1.26243 -0.00813517,-1.62556 -0.658949,-1.76385zm-0.587212 2.76004c-0.460007,-0.0976221 -0.530265,-0.23518 -0.299522,-1.32012 0.221868,-1.04574 0.341677,-1.13818 0.801684,-1.04049 0.460007,0.0975481 0.527307,0.22993 0.304699,1.27567 -0.230743,1.08494 -0.346854,1.18322 -0.806861,1.08494z"/>
  <path id="12" class="fil1" d="M16.0765 31.8255l0.396405 0.0480715 0.477017 1.36005c0.00221868,0.018489 0.0140517,0.0288429 0.0229264,0.0295824l0.018489 -0.00665605 0.323188 -0.116851c0.0140517,-0.00665605 0.0199682,-0.0192286 0.0221868,-0.0325407 0,-0.00443737 0.00147912,-0.0133121 -0.00221868,-0.0229264l-0.446695 -1.19957c0.358687,-0.00961429 0.567983,-0.296564 0.632325,-0.820913 0.0761748,-0.620492 -0.15161,-0.948117 -0.543577,-0.996189l-1.04345 -0.127944c-0.0178234,-0.00221868 -0.0333542,0.0133121 -0.0355729,0.0354989l-0.367562 2.99005c-0.00221868,0.0221868 0.00887473,0.0414154 0.0258846,0.0436341l0.339459 0.042155c0.0177495,0.00147912 0.0325407,-0.0140517 0.0354989,-0.0362385l0.145694 -1.18921zm0.181192 -1.47542l0.638981 0.0783935c0.193765,0.023666 0.244795,0.115372 0.187849,0.577597 -0.0584253,0.479975 -0.130902,0.560587 -0.329105,0.536182l-0.634543 -0.0783935 0.136819 -1.11378z"/>
  <path id="123" class="fil1" d="M20.0184 30.4463l-1.80305 -0.158266c-0.0177495,-0.00147912 -0.0325407,0.0155308 -0.0340198,0.0377176l-0.0273638 0.309137c-0.00147912,0.0221868 0.00961429,0.0406759 0.0273638,0.042155l0.698146 0.0613836 -0.231483 2.65207c-0.00221868,0.0221868 0.00954034,0.0414154 0.0273638,0.0428945l0.340198 0.0295824c0.0178234,0.00147912 0.0325407,-0.0147912 0.0347594,-0.0369781l0.231483 -2.65207 0.702583 0.0613836c0.0177495,0.00147912 0.0325407,-0.0155308 0.0347594,-0.0369781l0.0273638 -0.309876c0.00147912,-0.0221868 -0.0103539,-0.0406759 -0.0281033,-0.042155z"/>
  <path id="1234" class="fil1" d="M20.7897 30.7369l1.07088 -0.0754352c0.0177495,-0.000739561 0.0339459,-0.0199682 0.0325407,-0.042155l-0.0207077 -0.292127c-0.00147912,-0.0221868 -0.0199682,-0.0384572 -0.0377176,-0.0369781l-1.44288 0.10058c-0.0177495,0.00147912 -0.0295824,0.0199682 -0.0281033,0.042155l0.210035 3.00484c0.00147912,0.0221868 0.0162703,0.0384572 0.0340198,0.0377176l0.340198 -0.023666c0.0177495,-0.00147912 0.030322,-0.0199682 0.0288429,-0.042155l-0.0880078 -1.25725 0.849756 -0.0591649c0.0177495,-0.00147912 0.0340198,-0.0199682 0.0325407,-0.042155l-0.0207077 -0.292127c-0.00147912,-0.0221868 -0.0207077,-0.0384572 -0.0384572,-0.0377176l-0.848942 0.0599045 -0.0732905 -1.04426z"/>
  <path id="12345" class="fil1" d="M23.4078 30.0129c-0.663386,0.0931847 -0.965127,0.435602 -0.785414,1.7143 0.18563,1.3179 0.571681,1.57748 1.23507,1.4843 0.658949,-0.0924451 0.958471,-0.448174 0.773581,-1.76607 -0.179713,-1.2787 -0.564285,-1.52498 -1.22323,-1.43253zm0.392707 2.7948c-0.465184,0.0650814 -0.579076,-0.0399363 -0.732905,-1.13818 -0.149391,-1.05905 -0.0687792,-1.187 0.397144,-1.25208 0.465924,-0.0658209 0.573899,0.0354989 0.723291,1.09455 0.153829,1.09825 0.0783935,1.22989 -0.38753,1.29571z"/>
  <path id="123456" class="fil1" d="M26.153 32.3625l-0.508818 -2.61731c-0.00443737,-0.0221868 -0.0207077,-0.0369781 -0.0384572,-0.0332803l-0.335761 0.0650814c-0.0177495,0.00369781 -0.0273638,0.023666 -0.0229264,0.0451132l0.575379 2.9575c0.00443737,0.0214473 0.0207077,0.0362385 0.0377176,0.0332803l1.34156 -0.261065c0.0177495,-0.00295824 0.0318011,-0.023666 0.0273638,-0.0458528l-0.0584253 -0.300262c-0.00443737,-0.0221868 -0.0251451,-0.0362385 -0.042155,-0.0325407l-0.975481 0.189328z"/>
  <path id="1234567" class="fil1" d="M27.658 29.2992c-0.00591649,-0.0214473 -0.0229264,-0.0354989 -0.0399363,-0.0310616l-0.331323 0.0828308c-0.0177495,0.00369781 -0.0258846,0.0244055 -0.0207077,0.0458528l0.729207 2.92349c0.00591649,0.0214473 0.0229264,0.0354989 0.0399363,0.0310616l0.332063 -0.0828308c0.0170099,-0.00369781 0.0251451,-0.0244055 0.0199682,-0.0458528l-0.729207 -2.92349z"/>
  <path id="12345678" class="fil1" d="M29.3576 28.6417c-0.637576,0.206338 -0.874975,0.596086 -0.475612,1.82376 0.411936,1.26613 0.836444,1.45398 1.47395,1.24764 0.633064,-0.205598 0.866026,-0.607919 0.45483,-1.87405 -0.399363,-1.22767 -0.820173,-1.40295 -1.45316,-1.19735zm0.871869 2.68313c-0.446695,0.144954 -0.576858,0.0613836 -0.919274,-0.993231 -0.331323,-1.0169 -0.274377,-1.1566 0.173797,-1.30237 0.447434,-0.144954 0.571681,-0.0643418 0.901525,0.952555 0.343156,1.05461 0.291387,1.19735 -0.156047,1.34304z"/>
  <g>
   <path class="fil0" d="M17.4042 25.6687l0.00998408 0.000221868 0.00983616 0.000813517 0.00968825 0.0011833 0.00954034 0.00177495 0.00931847 0.00214473 0.00924451 0.00266242 0.00894869 0.00310616 0.00880078 0.00347594 0.00857891 0.00391967 0.00835704 0.00428945 0.00813517 0.00473319 0.00783935 0.00510297 0.00761748 0.00547275 0.00732166 0.00576858 0.00702583 0.00621231 0.00673001 0.00643418 0.00643418 0.00680396 0.0060644 0.00709979 0.00576858 0.00739561 0.0053988 0.00769144 0.00502902 0.0079133 0.00473319 0.00820913 0.0042155 0.008431 0.00391967 0.00865287 0.00347594 0.00887473 0.0030322 0.0090966 0.00258846 0.00931847 0.00221868 0.00946638 0.00170099 0.00961429 0.0011833 0.00983616 0.000813517 0.00991012 0.000221868 0.010058 -0.000221868 0.010058 -0.000813517 0.00991012 -0.0011833 0.00983616 -0.00170099 0.00961429 -0.00221868 0.00946638 -0.00258846 0.00931847 -0.0030322 0.0090966 -0.00347594 0.00887473 -0.00391967 0.00865287 -0.0042155 0.008431 -0.00473319 0.00820913 -0.00502902 0.0079133 -0.0053988 0.00769144 -0.00576858 0.00739561 -0.0060644 0.00709979 -0.00643418 0.00680396 -0.00673001 0.00643418 -0.00702583 0.00621231 -0.00732166 0.00576858 -0.00761748 0.00547275 -0.00783935 0.00510297 -0.00813517 0.00473319 -0.00835704 0.00428945 -0.00857891 0.00391967 -0.00880078 0.00347594 -0.00894869 0.00310616 -0.00924451 0.00266242 -0.00931847 0.00214473 -0.00954034 0.00177495 -0.00968825 0.0011833 -0.00983616 0.000813517 -0.00998408 0.000221868 0 -0.391376zm-9.7469 0.391376l0 -0.391376 9.7469 0 0 0.391376 -9.7469 0zm0 0l-0.00998408 -0.000221868 -0.00983616 -0.000813517 -0.00968825 -0.0011833 -0.00954034 -0.00177495 -0.00931847 -0.00214473 -0.00924451 -0.00266242 -0.00894869 -0.00310616 -0.00880078 -0.00347594 -0.00857891 -0.00391967 -0.00835704 -0.00428945 -0.00813517 -0.00473319 -0.00783935 -0.00510297 -0.00761748 -0.00547275 -0.00732166 -0.00576858 -0.00702583 -0.00621231 -0.00673001 -0.00643418 -0.00643418 -0.00680396 -0.0060644 -0.00709979 -0.00576858 -0.00739561 -0.0053988 -0.00769144 -0.00502902 -0.0079133 -0.00473319 -0.00820913 -0.0042155 -0.008431 -0.00391967 -0.00865287 -0.00347594 -0.00887473 -0.0030322 -0.0090966 -0.00258846 -0.00931847 -0.00221868 -0.00946638 -0.00170099 -0.00961429 -0.0011833 -0.00983616 -0.000813517 -0.00991012 -0.000221868 -0.010058 0.000221868 -0.010058 0.000813517 -0.00991012 0.0011833 -0.00983616 0.00170099 -0.00961429 0.00221868 -0.00946638 0.00258846 -0.00931847 0.0030322 -0.0090966 0.00347594 -0.00887473 0.00391967 -0.00865287 0.0042155 -0.008431 0.00473319 -0.00820913 0.00502902 -0.0079133 0.0053988 -0.00769144 0.00576858 -0.00739561 0.0060644 -0.00709979 0.00643418 -0.00680396 0.00673001 -0.00643418 0.00702583 -0.00621231 0.00732166 -0.00576858 0.00761748 -0.00547275 0.00783935 -0.00510297 0.00813517 -0.00473319 0.00835704 -0.00428945 0.00857891 -0.00391967 0.00880078 -0.00347594 0.00894869 -0.00310616 0.00924451 -0.00266242 0.00931847 -0.00214473 0.00954034 -0.00177495 0.00968825 -0.0011833 0.00983616 -0.000813517 0.00998408 -0.000221868 0 0.391376z"/>
  </g>
  <g>
   <polygon class="fil2" points="20.2941,24.793 20.7613,25.6189 21.691,25.8079 21.0499,26.5074 21.1574,27.45 20.2941,27.0564 19.4309,27.45 19.5384,26.5074 18.8973,25.8079 19.827,25.6189 "/>
   <path id="1" class="fil0" d="M20.7487 25.6826l-0.0434122 -0.0315793 -0.467107 -0.825868 0.11197 -0.0641939 0.467107 0.825868 -0.0685573 0.0957732zm-0.0434122 -0.0315793l0.11197 -0.0641939 0.00155308 0.00295824 0.00140517 0.00295824 0.00125725 0.0030322 0.00103539 0.00310616 0.000887473 0.0030322 0.000813517 0.00310616 0.000591649 0.00318011 0.000443737 0.00310616 0.000295824 0.00318011 7.39561e-005 0.00310616 0 0.00318011 -0.000147912 0.00310616 -0.000295824 0.00310616 -0.000517693 0.00310616 -0.000591649 0.0030322 -0.000739561 0.0030322 -0.000887473 0.0030322 -0.00103539 0.00288429 -0.0011833 0.00295824 -0.00125725 0.00281033 -0.00147912 0.00273638 -0.00155308 0.00273638 -0.00170099 0.00266242 -0.0018489 0.00251451 -0.00199682 0.00251451 -0.00207077 0.0023666 -0.00221868 0.00229264 -0.0023666 0.00214473 -0.00251451 0.00207077 -0.00258846 0.00199682 -0.00273638 0.0018489 -0.00281033 0.00170099 -0.00295824 0.00155308 -0.00295824 0.00140517 -0.00295824 0.00125725 -0.0030322 0.00110934 -0.00310616 0.000887473 -0.0030322 0.000739561 -0.00310616 0.000591649 -0.00310616 0.000443737 -0.00318011 0.000295824 -0.00310616 0.000147912 -0.00310616 0 -0.00310616 -0.000147912 -0.0030322 -0.000369781 -0.00310616 -0.000443737 -0.0030322 -0.000591649 -0.00295824 -0.000813517 -0.00295824 -0.000887473 -0.00295824 -0.00103539 -0.00288429 -0.0011833 -0.00273638 -0.00133121 -0.00281033 -0.00140517 -0.00266242 -0.00162703 -0.00258846 -0.00170099 -0.00251451 -0.0018489 -0.00244055 -0.00199682 -0.0023666 -0.00214473 -0.00229264 -0.00221868 -0.00214473 -0.0023666 -0.00207077 -0.00251451 -0.00192286 -0.00258846 -0.0018489 -0.00273638 -0.00170099 -0.00288429zm1.0328 0.201013l-0.0596826 0.0195984 -0.929702 -0.189032 0.0251451 -0.127352 0.929702 0.189032 0.0345375 0.107754zm-0.0596826 0.0195984l0.0251451 -0.127352 0.00325407 0.000739561 0.00310616 0.000887473 0.00310616 0.00103539 0.00295824 0.0011833 0.00288429 0.00133121 0.00281033 0.00147912 0.00273638 0.00155308 0.00266242 0.00170099 0.00251451 0.0018489 0.00244055 0.00199682 0.0023666 0.00207077 0.00221868 0.00214473 0.00207077 0.00229264 0.00207077 0.0023666 0.0018489 0.00244055 0.00177495 0.00258846 0.00162703 0.00258846 0.00155308 0.00273638 0.00140517 0.00281033 0.00125725 0.00281033 0.00110934 0.00295824 0.00103539 0.00295824 0.000813517 0.0030322 0.000739561 0.0030322 0.000517693 0.00318011 0.000443737 0.00310616 0.000221868 0.00325407 0.000147912 0.00318011 -7.39561e-005 0.00325407 -0.000221868 0.00325407 -0.000369781 0.00332803 -0.000591649 0.00325407 -0.000739561 0.00325407 -0.000887473 0.00318011 -0.00103539 0.00310616 -0.00110934 0.0030322 -0.00133121 0.00295824 -0.00147912 0.00281033 -0.00155308 0.00273638 -0.00170099 0.00266242 -0.00177495 0.00258846 -0.00199682 0.00244055 -0.00199682 0.0023666 -0.00214473 0.00229264 -0.00229264 0.00207077 -0.00229264 0.00207077 -0.00244055 0.00192286 -0.00258846 0.00177495 -0.00258846 0.00162703 -0.00266242 0.00155308 -0.00273638 0.00140517 -0.00288429 0.00133121 -0.00288429 0.00110934 -0.00288429 0.00103539 -0.0030322 0.000813517 -0.0030322 0.000739561 -0.00310616 0.000517693 -0.00310616 0.000443737 -0.00318011 0.000295824 -0.00318011 7.39561e-005 -0.00318011 -7.39561e-005 -0.00325407 -0.000221868 -0.00325407 -0.000369781 -0.00325407 -0.000591649zm-0.692525 0.643122l0.016936 -0.0514735 0.641052 -0.699403 0.0942201 0.0881557 -0.641052 0.699403 -0.111156 -0.0366822zm0.016936 -0.0514735l0.0942201 0.0881557 -0.00229264 0.0023666 -0.0023666 0.00229264 -0.00251451 0.00207077 -0.00258846 0.00192286 -0.00258846 0.0018489 -0.00273638 0.00162703 -0.00273638 0.00155308 -0.00281033 0.00140517 -0.00288429 0.0011833 -0.00295824 0.00110934 -0.00295824 0.000887473 -0.0030322 0.000813517 -0.00295824 0.000665605 -0.00310616 0.000443737 -0.0030322 0.000369781 -0.00310616 0.000147912 -0.0030322 7.39561e-005 -0.00310616 -7.39561e-005 -0.00310616 -0.000295824 -0.0030322 -0.000369781 -0.0030322 -0.000517693 -0.0030322 -0.000739561 -0.0030322 -0.000813517 -0.00295824 -0.00103539 -0.00288429 -0.00110934 -0.00288429 -0.00133121 -0.00281033 -0.00140517 -0.00281033 -0.00162703 -0.00266242 -0.00177495 -0.00266242 -0.0018489 -0.00258846 -0.00207077 -0.00244055 -0.00221868 -0.0023666 -0.00229264 -0.00221868 -0.00244055 -0.00207077 -0.00251451 -0.00192286 -0.00258846 -0.00177495 -0.00266242 -0.00170099 -0.00273638 -0.00147912 -0.00281033 -0.00133121 -0.00288429 -0.0011833 -0.00288429 -0.00110934 -0.00295824 -0.000887473 -0.00295824 -0.000813517 -0.0030322 -0.000591649 -0.00310616 -0.000517693 -0.0030322 -0.000295824 -0.00310616 -0.000221868 -0.00310616 -7.39561e-005 -0.00310616 0.000147912 -0.00310616 0.000221868 -0.00318011 0.000369781 -0.0030322 0.000591649 -0.00310616 0.000665605 -0.0030322 0.000887473 -0.0030322 0.000961429 -0.0030322 0.00110934 -0.00295824 0.00133121 -0.00288429 0.00140517 -0.00288429 0.00155308 -0.00273638 0.00177495 -0.00273638 0.0018489 -0.00266242 0.00207077 -0.00258846 0.00214473 -0.00251451zm0.128166 1.04604l-0.0375697 -0.0519172 -0.107532 -0.942645 0.128092 -0.0147912 0.107532 0.942645 -0.0905223 0.0667084zm-0.0375697 -0.0519172l0.128092 -0.0147912 0.000295824 0.00332803 0.000147912 0.00332803 -7.39561e-005 0.00325407 -0.000221868 0.00325407 -0.000369781 0.00325407 -0.000517693 0.00318011 -0.000665605 0.00310616 -0.000813517 0.0030322 -0.000961429 0.0030322 -0.00110934 0.00295824 -0.0011833 0.00288429 -0.00140517 0.00281033 -0.00147912 0.00273638 -0.00162703 0.00266242 -0.00177495 0.00258846 -0.0018489 0.00251451 -0.00199682 0.0023666 -0.00207077 0.0023666 -0.00221868 0.00214473 -0.00229264 0.00214473 -0.00244055 0.00199682 -0.00244055 0.0018489 -0.00266242 0.00170099 -0.00266242 0.00162703 -0.00273638 0.00155308 -0.00288429 0.00133121 -0.00295824 0.00125725 -0.0030322 0.00103539 -0.0030322 0.000961429 -0.00318011 0.000739561 -0.00325407 0.000665605 -0.00325407 0.000443737 -0.00332803 0.000295824 -0.00325407 0.000147912 -0.00325407 -7.39561e-005 -0.00318011 -0.000221868 -0.00318011 -0.000369781 -0.00318011 -0.000517693 -0.00310616 -0.000665605 -0.0030322 -0.000813517 -0.00295824 -0.000961429 -0.00295824 -0.00110934 -0.00281033 -0.00125725 -0.00281033 -0.00140517 -0.00273638 -0.00147912 -0.00266242 -0.00162703 -0.00251451 -0.00177495 -0.00251451 -0.00192286 -0.0023666 -0.00199682 -0.00221868 -0.00207077 -0.00221868 -0.00229264 -0.00207077 -0.00229264 -0.00199682 -0.00244055 -0.0018489 -0.00251451 -0.00170099 -0.00266242 -0.00162703 -0.00266242 -0.00147912 -0.00281033 -0.00133121 -0.00288429 -0.0011833 -0.0030322 -0.00110934 -0.0030322 -0.000887473 -0.00310616 -0.000813517 -0.00318011 -0.000591649 -0.00325407 -0.000443737 -0.00332803zm-0.82572 -0.460303l0.0529526 0 0.86329 0.393594 -0.0529526 0.118626 -0.86329 -0.393594 0 -0.118626zm0.0529526 0l-0.0529526 0.118626 -0.00295824 -0.00147912 -0.00288429 -0.00155308 -0.00281033 -0.00170099 -0.00266242 -0.0018489 -0.00251451 -0.00192286 -0.00244055 -0.00207077 -0.00229264 -0.00221868 -0.00221868 -0.00229264 -0.00207077 -0.0023666 -0.00192286 -0.00244055 -0.00177495 -0.00258846 -0.00170099 -0.00258846 -0.00162703 -0.00273638 -0.00140517 -0.00273638 -0.00125725 -0.00288429 -0.0011833 -0.00288429 -0.00103539 -0.00295824 -0.000887473 -0.00295824 -0.000739561 -0.0030322 -0.000591649 -0.00310616 -0.000443737 -0.00310616 -0.000295824 -0.00310616 -0.000221868 -0.00318011 0 -0.00318011 0.000147912 -0.00318011 0.000369781 -0.00318011 0.000443737 -0.00310616 0.000591649 -0.00318011 0.000813517 -0.00318011 0.000961429 -0.00310616 0.00110934 -0.00310616 0.00125725 -0.00310616 0.00140517 -0.0030322 0.00162703 -0.00288429 0.00170099 -0.00281033 0.00177495 -0.00266242 0.00192286 -0.00258846 0.00207077 -0.00244055 0.00214473 -0.00229264 0.00229264 -0.00221868 0.00229264 -0.00207077 0.00244055 -0.00199682 0.00251451 -0.0018489 0.00266242 -0.00170099 0.00266242 -0.00155308 0.00273638 -0.00147912 0.00281033 -0.00133121 0.00288429 -0.00110934 0.00288429 -0.00103539 0.00295824 -0.000887473 0.0030322 -0.000813517 0.0030322 -0.000591649 0.00310616 -0.000443737 0.0030322 -0.000295824 0.00318011 -0.000147912 0.00310616 0 0.00310616 0.000147912 0.00318011 0.000295824 0.00310616 0.000443737 0.00318011 0.000665605 0.00310616 0.000739561 0.00310616 0.000961429 0.00310616 0.00110934 0.0030322 0.00133121zm-0.953812 0.445512l0.0375697 -0.0519172 0.86329 -0.393594 0.0529526 0.118626 -0.86329 0.393594 -0.0905223 -0.0667084zm0.0375697 -0.0519172l0.0529526 0.118626 -0.0030322 0.00133121 -0.00310616 0.00110934 -0.00310616 0.000961429 -0.00310616 0.000739561 -0.00318011 0.000665605 -0.00310616 0.000443737 -0.00318011 0.000295824 -0.00310616 0.000147912 -0.00310616 0 -0.00318011 -0.000147912 -0.0030322 -0.000295824 -0.00310616 -0.000443737 -0.0030322 -0.000591649 -0.0030322 -0.000813517 -0.00295824 -0.000887473 -0.00288429 -0.00103539 -0.00288429 -0.00110934 -0.00281033 -0.00133121 -0.00273638 -0.00147912 -0.00266242 -0.00155308 -0.00266242 -0.00170099 -0.00251451 -0.0018489 -0.00244055 -0.00199682 -0.00229264 -0.00207077 -0.00229264 -0.00221868 -0.00214473 -0.00229264 -0.00207077 -0.00244055 -0.00192286 -0.00258846 -0.00177495 -0.00266242 -0.00170099 -0.00281033 -0.00162703 -0.00288429 -0.00140517 -0.0030322 -0.00125725 -0.00310616 -0.00110934 -0.00310616 -0.000961429 -0.00310616 -0.000813517 -0.00318011 -0.000591649 -0.00318011 -0.000443737 -0.00310616 -0.000369781 -0.00318011 -0.000147912 -0.00318011 0 -0.00318011 0.000221868 -0.00318011 0.000295824 -0.00310616 0.000443737 -0.00310616 0.000591649 -0.00310616 0.000739561 -0.0030322 0.000887473 -0.00295824 0.00103539 -0.00295824 0.0011833 -0.00288429 0.00125725 -0.00288429 0.00140517 -0.00273638 0.00162703 -0.00273638 0.00170099 -0.00258846 0.00177495 -0.00258846 0.00192286 -0.00244055 0.00207077 -0.0023666 0.00221868 -0.00229264 0.00229264 -0.00221868 0.00244055 -0.00207077 0.00251451 -0.00192286 0.00266242 -0.0018489 0.00281033 -0.00170099 0.00288429 -0.00155308 0.00295824 -0.00147912zm0.181119 -0.92741l0.016936 0.0514735 -0.107532 0.942645 -0.128092 -0.0147912 0.107532 -0.942645 0.111156 -0.0366822zm0.016936 0.0514735l-0.128092 -0.0147912 0.000443737 -0.00332803 0.000591649 -0.00325407 0.000813517 -0.00318011 0.000887473 -0.00310616 0.00110934 -0.0030322 0.0011833 -0.0030322 0.00133121 -0.00288429 0.00147912 -0.00281033 0.00162703 -0.00266242 0.00170099 -0.00266242 0.0018489 -0.00251451 0.00199682 -0.00244055 0.00207077 -0.00229264 0.00221868 -0.00229264 0.00221868 -0.00207077 0.0023666 -0.00199682 0.00251451 -0.00192286 0.00251451 -0.00177495 0.00266242 -0.00162703 0.00273638 -0.00147912 0.00281033 -0.00140517 0.00281033 -0.00125725 0.00295824 -0.00110934 0.00295824 -0.000961429 0.0030322 -0.000813517 0.00310616 -0.000665605 0.00318011 -0.000517693 0.00318011 -0.000369781 0.00318011 -0.000221868 0.00325407 -7.39561e-005 0.00325407 0.000147912 0.00332803 0.000295824 0.00325407 0.000443737 0.00325407 0.000665605 0.00318011 0.000739561 0.0030322 0.000961429 0.0030322 0.00103539 0.00295824 0.00125725 0.00288429 0.00133121 0.00273638 0.00155308 0.00266242 0.00162703 0.00266242 0.00170099 0.00244055 0.0018489 0.00244055 0.00199682 0.00229264 0.00214473 0.00221868 0.00214473 0.00207077 0.0023666 0.00199682 0.0023666 0.0018489 0.00251451 0.00177495 0.00258846 0.00162703 0.00266242 0.00147912 0.00273638 0.00140517 0.00281033 0.0011833 0.00288429 0.00110934 0.00295824 0.000961429 0.0030322 0.000813517 0.0030322 0.000665605 0.00310616 0.000517693 0.00318011 0.000369781 0.00325407 0.000221868 0.00325407 7.39561e-005 0.00325407 -0.000147912 0.00332803 -0.000295824 0.00332803zm-0.71767 -0.770475l0.0596826 0.0195984 0.641052 0.699403 -0.0942201 0.0881557 -0.641052 -0.699403 0.0345375 -0.107754zm0.0596826 0.0195984l-0.0942201 0.0881557 -0.00214473 -0.00251451 -0.00207077 -0.00258846 -0.0018489 -0.00266242 -0.00177495 -0.00273638 -0.00155308 -0.00273638 -0.00140517 -0.00288429 -0.00133121 -0.00288429 -0.00110934 -0.00295824 -0.000961429 -0.0030322 -0.000887473 -0.0030322 -0.000665605 -0.0030322 -0.000591649 -0.00310616 -0.000369781 -0.0030322 -0.000221868 -0.00318011 -0.000147912 -0.00310616 7.39561e-005 -0.00310616 0.000221868 -0.00310616 0.000295824 -0.00310616 0.000517693 -0.0030322 0.000591649 -0.00310616 0.000813517 -0.0030322 0.000887473 -0.00295824 0.00110934 -0.00295824 0.0011833 -0.00288429 0.00133121 -0.00288429 0.00147912 -0.00281033 0.00170099 -0.00273638 0.00177495 -0.00266242 0.00192286 -0.00258846 0.00207077 -0.00251451 0.00221868 -0.00244055 0.0023666 -0.00229264 0.00244055 -0.00221868 0.00258846 -0.00207077 0.00266242 -0.0018489 0.00266242 -0.00177495 0.00281033 -0.00162703 0.00281033 -0.00140517 0.00288429 -0.00133121 0.00288429 -0.00110934 0.00295824 -0.00103539 0.0030322 -0.000813517 0.0030322 -0.000739561 0.0030322 -0.000517693 0.0030322 -0.000369781 0.00310616 -0.000295824 0.00310616 -7.39561e-005 0.0030322 0 0.00310616 0.000221868 0.0030322 0.000369781 0.00310616 0.000443737 0.00295824 0.000665605 0.0030322 0.000813517 0.00295824 0.000887473 0.00295824 0.00110934 0.00288429 0.0011833 0.00281033 0.00140517 0.00273638 0.00155308 0.00273638 0.00162703 0.00258846 0.0018489 0.00258846 0.00192286 0.00251451 0.00207077 0.0023666 0.00229264 0.00229264 0.0023666zm0.938577 -0.112857l-0.0434122 0.0315793 -0.929702 0.189032 -0.0251451 -0.127352 0.929702 -0.189032 0.0685573 0.0957732zm-0.0434122 0.0315793l-0.0251451 -0.127352 0.00325407 -0.000591649 0.00325407 -0.000369781 0.00325407 -0.000221868 0.00318011 -7.39561e-005 0.00318011 7.39561e-005 0.00318011 0.000295824 0.00310616 0.000443737 0.00310616 0.000517693 0.0030322 0.000739561 0.0030322 0.000813517 0.00288429 0.00103539 0.00288429 0.00110934 0.00288429 0.00133121 0.00273638 0.00140517 0.00266242 0.00155308 0.00258846 0.00162703 0.00258846 0.00177495 0.00244055 0.00192286 0.00229264 0.00207077 0.00229264 0.00207077 0.00214473 0.00229264 0.00199682 0.0023666 0.00199682 0.00244055 0.00177495 0.00258846 0.00170099 0.00266242 0.00155308 0.00273638 0.00147912 0.00281033 0.00133121 0.00295824 0.00110934 0.0030322 0.00103539 0.00310616 0.000887473 0.00318011 0.000739561 0.00325407 0.000591649 0.00325407 0.000369781 0.00332803 0.000221868 0.00325407 7.39561e-005 0.00325407 -0.000147912 0.00318011 -0.000221868 0.00325407 -0.000443737 0.00310616 -0.000517693 0.00318011 -0.000739561 0.0030322 -0.000813517 0.0030322 -0.00103539 0.00295824 -0.00110934 0.00295824 -0.00125725 0.00281033 -0.00140517 0.00281033 -0.00155308 0.00273638 -0.00162703 0.00258846 -0.00177495 0.00258846 -0.0018489 0.00244055 -0.00207077 0.0023666 -0.00207077 0.00229264 -0.00221868 0.00214473 -0.0023666 0.00207077 -0.00244055 0.00199682 -0.00251451 0.0018489 -0.00266242 0.00170099 -0.00273638 0.00155308 -0.00281033 0.00147912 -0.00288429 0.00133121 -0.00295824 0.0011833 -0.00310616 0.00103539 -0.00310616 0.000887473 -0.00325407 0.000739561zm0.510519 -0.921641l0 0.0641939 -0.467107 0.825868 -0.11197 -0.0641939 0.467107 -0.825868 0.11197 0zm0 0.0641939l-0.11197 -0.0641939 0.00170099 -0.00288429 0.0018489 -0.00273638 0.00192286 -0.00258846 0.00207077 -0.00251451 0.00214473 -0.0023666 0.00229264 -0.00221868 0.0023666 -0.00214473 0.00244055 -0.00199682 0.00251451 -0.0018489 0.00258846 -0.00170099 0.00266242 -0.00162703 0.00281033 -0.00140517 0.00273638 -0.00133121 0.00288429 -0.0011833 0.00295824 -0.00103539 0.00295824 -0.000961429 0.00295824 -0.000739561 0.0030322 -0.000591649 0.00310616 -0.000443737 0.0030322 -0.000369781 0.00310616 -0.000147912 0.00310616 0 0.00310616 0.000147912 0.00318011 0.000295824 0.00310616 0.000443737 0.00310616 0.000591649 0.0030322 0.000739561 0.00310616 0.000887473 0.0030322 0.00110934 0.00295824 0.00125725 0.00295824 0.00140517 0.00295824 0.00155308 0.00281033 0.00170099 0.00273638 0.0018489 0.00258846 0.00199682 0.00251451 0.00207077 0.0023666 0.00214473 0.00221868 0.00229264 0.00207077 0.0023666 0.00199682 0.00251451 0.0018489 0.00251451 0.00170099 0.00266242 0.00155308 0.00273638 0.00147912 0.00273638 0.00125725 0.00281033 0.0011833 0.00295824 0.00103539 0.00288429 0.000887473 0.0030322 0.000739561 0.0030322 0.000591649 0.0030322 0.000517693 0.00310616 0.000295824 0.00310616 0.000147912 0.00310616 0 0.00318011 -7.39561e-005 0.00310616 -0.000295824 0.00318011 -0.000443737 0.00310616 -0.000591649 0.00318011 -0.000813517 0.00310616 -0.000887473 0.0030322 -0.00103539 0.00310616 -0.00125725 0.0030322 -0.00140517 0.00295824 -0.00155308 0.00295824z"/>
  </g>
  <g>
   <path class="fil0" d="M23.1841 25.6687l0 0.391376 -0.00998408 -0.000221868 -0.00983616 -0.000813517 -0.00968825 -0.0011833 -0.00954034 -0.00177495 -0.00931847 -0.00214473 -0.00924451 -0.00266242 -0.00894869 -0.00310616 -0.00880078 -0.00347594 -0.00857891 -0.00391967 -0.00835704 -0.00428945 -0.00813517 -0.00473319 -0.00783935 -0.00510297 -0.00761748 -0.00547275 -0.00732166 -0.00576858 -0.00702583 -0.00621231 -0.00673001 -0.00643418 -0.00643418 -0.00680396 -0.0060644 -0.00709979 -0.00576858 -0.00739561 -0.0053988 -0.00769144 -0.00502902 -0.0079133 -0.00473319 -0.00820913 -0.0042155 -0.008431 -0.00391967 -0.00865287 -0.00347594 -0.00887473 -0.0030322 -0.0090966 -0.00258846 -0.00931847 -0.00221868 -0.00946638 -0.00170099 -0.00961429 -0.0011833 -0.00983616 -0.000813517 -0.00991012 -0.000221868 -0.010058 0.000221868 -0.010058 0.000813517 -0.00991012 0.0011833 -0.00983616 0.00170099 -0.00961429 0.00221868 -0.00946638 0.00258846 -0.00931847 0.0030322 -0.0090966 0.00347594 -0.00887473 0.00391967 -0.00865287 0.0042155 -0.008431 0.00473319 -0.00820913 0.00502902 -0.0079133 0.0053988 -0.00769144 0.00576858 -0.00739561 0.0060644 -0.00709979 0.00643418 -0.00680396 0.00673001 -0.00643418 0.00702583 -0.00621231 0.00732166 -0.00576858 0.00761748 -0.00547275 0.00783935 -0.00510297 0.00813517 -0.00473319 0.00835704 -0.00428945 0.00857891 -0.00391967 0.00880078 -0.00347594 0.00894869 -0.00310616 0.00924451 -0.00266242 0.00931847 -0.00214473 0.00954034 -0.00177495 0.00968825 -0.0011833 0.00983616 -0.000813517 0.00998408 -0.000221868zm9.7469 0.391376l-9.7469 0 0 -0.391376 9.7469 0 0 0.391376zm0 0l0 -0.391376 0.00998408 0.000221868 0.00983616 0.000813517 0.00968825 0.0011833 0.00954034 0.00177495 0.00931847 0.00214473 0.00924451 0.00266242 0.00894869 0.00310616 0.00880078 0.00347594 0.00857891 0.00391967 0.00835704 0.00428945 0.00813517 0.00473319 0.00783935 0.00510297 0.00761748 0.00547275 0.00732166 0.00576858 0.00702583 0.00621231 0.00673001 0.00643418 0.00643418 0.00680396 0.0060644 0.00709979 0.00576858 0.00739561 0.0053988 0.00769144 0.00502902 0.0079133 0.00473319 0.00820913 0.0042155 0.008431 0.00391967 0.00865287 0.00347594 0.00887473 0.0030322 0.0090966 0.00258846 0.00931847 0.00221868 0.00946638 0.00170099 0.00961429 0.0011833 0.00983616 0.000813517 0.00991012 0.000221868 0.010058 -0.000221868 0.010058 -0.000813517 0.00991012 -0.0011833 0.00983616 -0.00170099 0.00961429 -0.00221868 0.00946638 -0.00258846 0.00931847 -0.0030322 0.0090966 -0.00347594 0.00887473 -0.00391967 0.00865287 -0.0042155 0.008431 -0.00473319 0.00820913 -0.00502902 0.0079133 -0.0053988 0.00769144 -0.00576858 0.00739561 -0.0060644 0.00709979 -0.00643418 0.00680396 -0.00673001 0.00643418 -0.00702583 0.00621231 -0.00732166 0.00576858 -0.00761748 0.00547275 -0.00783935 0.00510297 -0.00813517 0.00473319 -0.00835704 0.00428945 -0.00857891 0.00391967 -0.00880078 0.00347594 -0.00894869 0.00310616 -0.00924451 0.00266242 -0.00931847 0.00214473 -0.00954034 0.00177495 -0.00968825 0.0011833 -0.00983616 0.000813517 -0.00998408 0.000221868z"/>
  </g>
 </g>
</svg>
